<svg width="25" height="24" viewBox="0 0 28 28" fill="none" xmlns="http://www.w3.org/2000/svg">
<path d="M14 0C6.28013 0 0 6.28027 0 13.9998C0 21.7195 6.28013 28 14 28C21.7194 28 28 21.7195 28 13.9998C28 6.28027 21.7194 0 14 0ZM17.9568 8.83776C17.9568 8.90406 17.9305 8.96763 17.8836 9.01451C17.8367 9.06138 17.7731 9.08772 17.7068 9.08772L16.1154 9.08872C15.0653 9.08872 14.8733 9.49763 14.8733 10.303V11.9736H17.6029C17.6746 11.9736 17.7431 12.0046 17.7903 12.0586C17.8376 12.1126 17.8596 12.1844 17.8508 12.2556L17.4621 15.2633C17.4544 15.3235 17.4249 15.3789 17.3793 15.419C17.3336 15.4591 17.2749 15.4812 17.2142 15.4812H14.8733V22.9495C14.8733 23.0158 14.847 23.0794 14.8001 23.1262C14.7533 23.1731 14.6897 23.1994 14.6234 23.1994H11.5179C11.4517 23.1994 11.3881 23.1731 11.3412 23.1262C11.2943 23.0794 11.268 23.0158 11.268 22.9495V15.4812H8.91966C8.85336 15.4812 8.78979 15.4549 8.74291 15.408C8.69604 15.3611 8.6697 15.2976 8.6697 15.2313V12.2236C8.6697 12.1573 8.69604 12.0937 8.74291 12.0469C8.78979 12 8.85336 11.9736 8.91966 11.9736H11.268V10.0053C11.268 7.3983 12.8457 5.77911 15.386 5.77911C16.4781 5.77911 17.4431 5.86035 17.7396 5.89959C17.7997 5.90753 17.8548 5.93703 17.8948 5.98259C17.9347 6.02816 17.9568 6.08669 17.9568 6.14729V8.83776Z" fill="#6B6B6B"/>
</svg>
