<svg width="25" height="24" viewBox="0 0 21 21" fill="none" xmlns="http://www.w3.org/2000/svg">
<path d="M20.937 6.17167C20.9197 5.30049 20.7548 4.43854 20.4493 3.6225C20.1853 2.92183 19.7717 2.28718 19.2372 1.76283C18.7128 1.22833 18.0782 0.814655 17.3775 0.550667C16.5618 0.245305 15.7003 0.0804142 14.8295 0.063C13.7083 0.0116667 13.3513 0 10.5 0C7.64867 0 7.29167 0.0116667 6.17167 0.063C5.30049 0.0802827 4.43854 0.245176 3.6225 0.550667C2.92141 0.814505 2.28635 1.22819 1.76167 1.76283C1.22716 2.28718 0.813488 2.92183 0.5495 3.6225C0.244138 4.43818 0.0792475 5.29971 0.0618333 6.1705C0.0116666 7.29167 0 7.64867 0 10.5C0 13.3513 0.0116667 13.7083 0.063 14.8283C0.0802827 15.6995 0.245176 16.5615 0.550667 17.3775C0.814655 18.0782 1.22833 18.7128 1.76283 19.2372C2.28716 19.7717 2.92181 20.1854 3.6225 20.4493C4.43818 20.7547 5.29971 20.9196 6.1705 20.937C7.29167 20.9883 7.64867 21 10.5 21C13.3513 21 13.7083 20.9883 14.8283 20.937C15.6995 20.9197 16.5615 20.7548 17.3775 20.4493C18.0753 20.1796 18.709 19.767 19.238 19.238C19.767 18.709 20.1796 18.0753 20.4493 17.3775C20.7547 16.5618 20.9196 15.7003 20.937 14.8295C20.9883 13.7083 21 13.3513 21 10.5C21 7.64867 20.9883 7.29167 20.937 6.17167ZM19.047 14.7432C19.0389 15.4085 18.9166 16.0676 18.6853 16.6915C18.5108 17.1446 18.2433 17.556 17.9001 17.8994C17.5569 18.2428 17.1456 18.5105 16.6927 18.6853C16.0684 18.9167 15.4089 19.0391 14.7432 19.047C13.6348 19.0972 13.3035 19.1077 10.5 19.1077C7.6965 19.1077 7.364 19.0972 6.25683 19.047C5.59147 19.0389 4.93244 18.9166 4.3085 18.6853C3.85196 18.5173 3.43894 18.249 3.09983 17.9002C2.75116 17.5614 2.48286 17.1488 2.31467 16.6927C2.08325 16.0684 1.96092 15.4089 1.953 14.7432C1.90283 13.6348 1.89233 13.3035 1.89233 10.5C1.89233 7.6965 1.90283 7.364 1.953 6.25683C1.96107 5.59147 2.08341 4.93244 2.31467 4.3085C2.48271 3.85196 2.75102 3.43894 3.09983 3.09983C3.4386 2.75116 3.85122 2.48286 4.30733 2.31467C4.93164 2.08328 5.59107 1.96094 6.25683 1.953C7.36517 1.90283 7.6965 1.89233 10.5 1.89233C13.3035 1.89233 13.636 1.90283 14.7432 1.953C15.4085 1.96107 16.0676 2.08341 16.6915 2.31467C17.148 2.48271 17.5611 2.75102 17.9002 3.09983C18.2488 3.4386 18.5171 3.85122 18.6853 4.30733C18.9167 4.93164 19.0391 5.59107 19.047 6.25683C19.0972 7.36517 19.1077 7.6965 19.1077 10.5C19.1077 13.3035 19.0972 13.636 19.047 14.7432ZM10.5 5.10767C9.4335 5.10767 8.39094 5.42392 7.50418 6.01644C6.61741 6.60896 5.92627 7.45112 5.51813 8.43644C5.11 9.42176 5.00321 10.506 5.21128 11.552C5.41934 12.598 5.93291 13.5588 6.68704 14.313C7.44118 15.0671 8.402 15.5807 9.44801 15.7887C10.494 15.9968 11.5782 15.89 12.5636 15.4819C13.5489 15.0737 14.391 14.3826 14.9836 13.4958C15.5761 12.6091 15.8923 11.5665 15.8923 10.5C15.8923 9.06986 15.3242 7.6983 14.313 6.68704C13.3017 5.67579 11.9301 5.10767 10.5 5.10767ZM10.5 14C9.80777 14 9.13108 13.7947 8.5555 13.4101C7.97993 13.0256 7.53133 12.4789 7.26642 11.8394C7.00151 11.1999 6.9322 10.4961 7.06725 9.81718C7.2023 9.13825 7.53564 8.51461 8.02513 8.02513C8.51461 7.53564 9.13825 7.2023 9.81718 7.06725C10.4961 6.9322 11.1999 7.00151 11.8394 7.26642C12.4789 7.53133 13.0256 7.97993 13.4101 8.5555C13.7947 9.13108 14 9.80777 14 10.5C14 11.4283 13.6313 12.3185 12.9749 12.9749C12.3185 13.6313 11.4283 14 10.5 14ZM17.3647 4.89533C17.3647 5.14454 17.2908 5.38815 17.1523 5.59535C17.0139 5.80256 16.8171 5.96406 16.5868 6.05942C16.3566 6.15479 16.1033 6.17974 15.8589 6.13112C15.6144 6.08251 15.3899 5.9625 15.2137 5.78629C15.0375 5.61007 14.9175 5.38556 14.8689 5.14115C14.8203 4.89673 14.8452 4.64339 14.9406 4.41315C15.0359 4.18292 15.1974 3.98613 15.4046 3.84768C15.6119 3.70923 15.8555 3.63533 16.1047 3.63533C16.4388 3.63533 16.7593 3.76808 16.9956 4.00438C17.2319 4.24067 17.3647 4.56116 17.3647 4.89533Z" fill="#6B6B6B"/>
</svg>
