<svg width="122" height="34" viewBox="0 0 122 34" fill="none" xmlns="http://www.w3.org/2000/svg">
<rect x="13.8137" y="5.39697" width="8.92389" height="27.6274" rx="4.46194" transform="rotate(30 13.8137 5.39697)" fill="#F0F0F0"/>
<rect x="27.5662" y="2.68945" width="8.92389" height="30.6835" rx="4.46194" transform="rotate(30 27.5662 2.68945)" fill="#F0F0F0"/>
<rect x="41.4412" width="8.92389" height="33.7396" rx="4.46194" transform="rotate(30 41.4412 0)" fill="#F0F0F0"/>
<path d="M48.9553 12.3144C48.9553 11.8606 49.1028 11.4796 49.3977 11.1716C49.709 10.8475 50.0941 10.6854 50.5529 10.6854H63.9722C64.431 10.6854 64.8243 10.8393 65.152 11.1473C65.4633 11.4715 65.6189 11.8606 65.6189 12.3144C65.6189 12.6062 65.5534 12.8737 65.4223 13.1168L58.344 24.885C57.7541 25.6793 57.0086 25.8495 56.1074 25.3956C55.7305 25.1849 55.4684 24.8607 55.3209 24.4231C55.1898 23.9854 55.2472 23.5802 55.493 23.2073L61.0721 13.9435H52.8386C52.4453 13.9597 52.2487 14.1623 52.2487 14.5514V17.2746C52.1504 18.2472 51.6097 18.774 50.6266 18.855C50.1842 18.855 49.791 18.7091 49.4469 18.4174C49.1192 18.1094 48.9553 17.7285 48.9553 17.2746V12.3144Z" fill="#F0F0F0"/>
<path d="M74.1473 13.9435C73.5247 13.9759 73.0004 14.211 72.5744 14.6486C72.1648 15.0863 71.8698 15.5888 71.6896 16.1561C71.5094 16.7073 71.4192 17.2746 71.4192 17.8581C71.4192 18.4417 71.5012 19.0171 71.665 19.5845C71.8452 20.1518 72.1484 20.6543 72.5744 21.092C73.0004 21.5134 73.5247 21.7404 74.1473 21.7728H82.258C83.2902 21.87 83.8555 22.4293 83.9538 23.4505C83.9374 23.9044 83.7654 24.2853 83.4377 24.5933C83.11 24.885 82.7167 25.0309 82.258 25.0309H73.2871C72.1402 24.9661 71.198 24.5365 70.4607 23.7423C69.7234 22.9318 69.1909 22.0159 68.8632 20.9947C68.5519 19.9735 68.3962 18.928 68.3962 17.8581C68.3962 17.0639 68.4863 16.2777 68.6665 15.4996C68.8468 14.7216 69.1253 13.984 69.5022 13.287C69.8954 12.5738 70.4116 11.9659 71.0506 11.4634C71.706 10.9609 72.4515 10.7016 73.2871 10.6854H82.258C83.2902 10.7826 83.8555 11.3418 83.9538 12.3631C83.9538 12.8169 83.7818 13.1979 83.4377 13.5058C83.11 13.7976 82.7167 13.9435 82.258 13.9435H74.1473Z" fill="#F0F0F0"/>
<path d="M91.7449 21.2622C91.7449 20.8083 91.9006 20.4274 92.2119 20.1194C92.5396 19.7952 92.9328 19.6331 93.3916 19.6331H97.152L96.513 17.8338C96.2508 17.1692 95.9886 16.5452 95.7265 15.9616C95.4807 15.3618 95.194 14.8188 94.8663 14.3325C94.5713 13.8462 94.2354 13.5869 93.8586 13.5545C93.4653 13.5869 93.1131 13.8462 92.8017 14.3325C92.4904 14.8188 92.2037 15.3618 91.9415 15.9616C91.6957 16.5452 91.4418 17.1692 91.1796 17.8338L88.8447 24.1556C88.6809 24.496 88.4679 24.7797 88.2057 25.0066C87.96 25.2173 87.5831 25.3227 87.0752 25.3227C86.6 25.3227 86.2068 25.1606 85.8954 24.8364C85.6005 24.5122 85.4694 24.1232 85.5022 23.6693C85.5186 23.4586 85.5677 23.2641 85.6497 23.0858L88.3532 16.1804C89.1069 14.365 89.8606 12.898 90.6143 11.7795C91.3517 10.6773 92.4331 10.118 93.8586 10.1018C95.2677 10.118 96.3409 10.6773 97.0782 11.7795C97.832 12.8656 98.5857 14.3325 99.3394 16.1804L102.043 23.0858C102.125 23.2641 102.174 23.4586 102.19 23.6693C102.223 24.1232 102.084 24.5122 101.773 24.8364C101.478 25.1606 101.093 25.3227 100.617 25.3227C100.077 25.3227 99.6753 25.2173 99.4131 25.0066C99.1673 24.7797 98.9625 24.496 98.7987 24.1556L98.3317 22.8912H93.3916C92.9328 22.8912 92.5478 22.7291 92.2365 22.405C91.9088 22.097 91.7449 21.716 91.7449 21.2622Z" fill="#F0F0F0"/>
<path d="M107.966 23.7909C107.868 24.7635 107.327 25.2903 106.344 25.3713C105.885 25.3713 105.484 25.2254 105.14 24.9337C104.812 24.6257 104.648 24.2448 104.648 23.7909V12.2658C104.665 11.8119 104.837 11.4391 105.164 11.1473C105.492 10.8393 105.885 10.6854 106.344 10.6854H116.642C116.74 10.6854 116.839 10.6935 116.937 10.7097H117.084C118.231 10.7421 119.173 11.0014 119.911 11.4877C120.648 11.974 121.181 12.5333 121.508 13.1654C121.836 13.7814 122 14.4055 122 15.0377C122 15.686 121.836 16.3263 121.508 16.9585C121.197 17.5745 120.665 18.1256 119.911 18.6119C119.173 19.0982 118.231 19.3575 117.084 19.39H112.759C112.89 20.2004 113.16 20.8002 113.57 21.1892C113.963 21.5783 114.463 21.7728 115.069 21.7728H120.378C120.837 21.789 121.213 21.9592 121.508 22.2834C121.82 22.6076 121.975 22.9966 121.975 23.4505C121.959 23.8881 121.795 24.261 121.484 24.5689C121.189 24.8607 120.82 25.0147 120.378 25.0309H114.627C113.414 25.0471 112.316 24.5771 111.333 23.6207C110.35 22.6643 109.752 21.5296 109.539 20.2166C109.244 18.7578 109.097 17.9392 109.097 17.7609C109.097 17.307 109.252 16.9261 109.564 16.6181C109.891 16.2939 110.285 16.1318 110.743 16.1318H117.232C117.543 16.1156 117.797 16.0508 117.994 15.9373C118.207 15.8076 118.362 15.6698 118.461 15.5239C118.559 15.3618 118.608 15.1998 118.608 15.0377C118.608 14.8756 118.559 14.7216 118.461 14.5757C118.362 14.4136 118.207 14.2758 117.994 14.1623C117.797 14.0327 117.543 13.9597 117.232 13.9435H108.605C108.179 13.9597 107.966 14.1704 107.966 14.5757V23.7909Z" fill="#F0F0F0"/>
</svg>
